PathFileType	4	(x/y/z)	S04_P20_T21.trc
DataRate	CameraRate	NumFrames	NumMarkers	Units	OrigDataRate	OrigDataStartFrame	OrigNumFrames
240	240	9	51	mm	240	46	361
Frame#	Time	Sternum			R.Acromium			L.Acromium			Top.Head			R.ASIS			L.ASIS			R.PSIS			L.PSIS			R.Great.Tro			L.Great.Tro			R.Iliac.Crest			L.Iliac.Crest			V.Sacral			R.Thigh.Upper.Post			R.Thigh.Lower.Ant			R.Thigh.Lower.Post			R.Thigh.Upper.Ant			R.Knee.Lat			R.Knee.Med			R.Shank.Upper.Post			R.Shank.Lower.Ant			R.Shank.Lower.Post			R.Shank.Upper.Ant			R.Ankle.Lat			R.Ankle.Med			R.Heel.Upper			R.Heel.Med			R.Heel.Lat			R.Toe.Lat			R.Toe.Med			R.Toe.Tip			L.Thigh.Upper.Post			L.Thigh.Lower.Ant			L.Thigh.Lower.Post			L.Thigh.Upper.Ant			L.Knee.Lat			L.Knee.Med			L.Shank.Upper.Post			L.Shank.Lower.Ant			L.Shank.Lower.Post			L.Shank.Upper.Ant			L.Ankle.Lat			L.Ankle.Med			L.Heel.Upper			L.Heel.Med			L.Heel.Lat			L.Toe.Lat			L.Toe.Med			L.Toe.Tip			Cervical.Spine			Back			
		X1	Y1	Z1	X2	Y2	Z2	X3	Y3	Z3	X4	Y4	Z4	X5	Y5	Z5	X6	Y6	Z6	X7	Y7	Z7	X8	Y8	Z8	X9	Y9	Z9	X10	Y10	Z10	X11	Y11	Z11	X12	Y12	Z12	X13	Y13	Z13	X14	Y14	Z14	X15	Y15	Z15	X16	Y16	Z16	X17	Y17	Z17	X18	Y18	Z18	X19	Y19	Z19	X20	Y20	Z20	X21	Y21	Z21	X22	Y22	Z22	X23	Y23	Z23	X24	Y24	Z24	X25	Y25	Z25	X26	Y26	Z26	X27	Y27	Z27	X28	Y28	Z28	X29	Y29	Z29	X30	Y30	Z30	X31	Y31	Z31	X32	Y32	Z32	X33	Y33	Z33	X34	Y34	Z34	X35	Y35	Z35	X36	Y36	Z36	X37	Y37	Z37	X38	Y38	Z38	X39	Y39	Z39	X40	Y40	Z40	X41	Y41	Z41	X42	Y42	Z42	X43	Y43	Z43	X44	Y44	Z44	X45	Y45	Z45	X46	Y46	Z46	X47	Y47	Z47	X48	Y48	Z48	X49	Y49	Z49	X50	Y50	Z50	X51	Y51	Z51	

46	0.1875	-1050.7	1278.6	246.81	-1161.9	1508.1	430.48	-1202.4	1490.2	82.527	-1182.5	1831.5	240.58	-1090.4	991.04	392.41	-1092.1	1018.6	145.27	-1307.5	1024.8	294.68	-1304.3	1035.4	212.85	-1177.4	905.55	451.82	-1200.8	926.99	76.91	-1179.3	1085.4	435.95	-1195.3	1094.3	100.41	-1327.1	988.38	252.77	-1146.2	647.35	446.49	-1058.2	575.12	423.67	-1132.8	557.94	433.7	-1066	684.94	440.68	-1114.3	492.72	428.47	-1120.6	487.36	293.29	-1316.5	383.71	417.89	NaN	NaN	NaN	-1366.6	335.23	403.88	-1281.5	330.29	406.87	-1447.9	252.87	386.92	-1412	236.01	303.8	-1510.2	268.97	323.84	-1517.2	239.39	294.02	-1537.3	248.28	355.43	-1431.1	127.29	430.7	-1382.4	92.673	321.55	-1328	69.936	377.31	-1172	686.46	94.411	-1074.9	607.56	105.23	-1147.1	602.02	112.19	-1104.4	691.04	85.313	-1090	516.68	122.78	-1093	508.9	246.75	-1167.2	333.57	123.95	-1098.1	248.43	134.83	-1160.3	256.18	135.07	-1105.3	323.97	123.57	-1119.7	98.872	155.21	-1117.9	110.44	248.96	-1196.6	69.461	202.49	-1190.2	45.857	236.64	-1193.7	40.892	175.72	-1008.3	42.232	138.77	-978.4	50.341	255.03	-920.45	61.578	205.87	-1229.9	1552	264.44	-1317.5	1296.4	254.77
47	0.19167	-1045.6	1279.3	246.94	-1157.3	1508.9	430.19	-1196.6	1490.8	82.155	-1177.3	1832.2	239.99	-1085.4	991.97	392.14	-1086.8	1019.1	144.9	-1302.5	1025.4	294.39	-1299.3	1035.9	212.56	-1172	906.55	451.61	-1196.1	927.39	76.744	-1174.4	1086.2	435.63	-1190	1094.9	100.12	-1322.1	988.98	252.48	-1137.9	648.54	446.19	-1049.1	577.32	423.46	-1123.5	559.27	433.36	-1058.1	687.03	440.51	-1104.3	494.51	428.19	-1110.2	489	292.93	-1305.9	384.51	417.36	-1315.6	280.9	387.39	-1355.7	335.64	403.45	-1270.8	331.07	406.7	-1436.3	252.81	386.57	-1400.5	235.94	303.43	-1498.8	268.06	323.21	-1505.7	238.17	293.5	-1525.8	247.35	354.92	-1418.3	127.74	431.12	-1369.5	92.902	322.11	-1315.2	70.737	378.27	-1168.5	686.91	94.487	-1072	607.38	105.25	-1144.2	602.31	112.24	-1101	691.05	85.311	-1087.8	516.58	122.83	-1090.6	508.89	246.85	-1166.2	333.82	124.35	-1097.3	248.37	134.89	-1159.3	256.52	135.27	-1104.2	323.97	123.65	-1119.6	99.005	155.39	-1117.8	110.49	249.11	-1196.6	69.594	202.58	-1190.2	45.916	236.7	-1193.6	41.027	175.76	-1008.3	42.274	138.78	-978.36	50.148	255.07	-920.42	61.368	205.89	-1224.8	1552.8	263.95	-1312.4	1297.2	254.11
48	0.19583	-1040.6	1280	247.08	-1152.6	1509.7	429.92	-1190.8	1491.4	81.796	-1172.1	1832.8	239.42	-1080.4	992.94	391.87	-1081.6	1019.7	144.53	-1297.6	1026.1	294.1	-1294.3	1036.5	212.27	-1166.7	907.59	451.42	-1191.4	927.79	76.594	-1169.6	1087.1	435.32	-1184.8	1095.6	99.831	-1317.1	989.59	252.22	-1129.7	649.79	445.92	-1040.1	579.58	423.22	-1114.3	560.67	433.05	-1050.3	689.17	440.34	-1094.4	496.35	427.9	-1100	490.74	292.57	-1295.3	385.11	416.85	-1305.2	280.69	387.02	-1344.8	335.77	403.04	-1259.9	331.78	406.52	-1424.4	252.37	386.25	-1388.7	235.59	303.07	-1487.2	266.72	322.66	-1493.9	236.54	293.04	-1514.1	245.93	354.49	-1405.1	127.8	431.46	-1356.2	92.93	322.53	-1301.9	71.359	379.06	-1165.2	687.38	94.567	-1069.1	607.21	105.26	-1141.4	602.61	112.29	-1097.6	691.06	85.311	-1085.6	516.48	122.87	-1088.4	508.88	246.93	-1165.3	334.06	124.75	-1096.4	248.33	134.94	-1158.4	256.86	135.47	-1103.1	323.97	123.72	-1119.5	99.139	155.56	-1117.7	110.54	249.25	-1196.7	69.733	202.67	-1190.2	45.984	236.75	-1193.6	41.167	175.81	-1008.3	42.313	138.79	-978.32	49.968	255.11	-920.39	61.167	205.9	-1219.6	1553.5	263.46	-1307.4	1298	253.44
49	0.2	-1035.5	1280.6	247.22	-1148	1510.5	429.65	-1185.1	1492.1	81.449	-1166.9	1833.5	238.86	-1075.4	993.93	391.61	-1076.4	1020.2	144.17	-1292.6	1026.7	293.84	-1289.3	1037.1	212	-1161.4	908.67	451.25	-1186.7	928.2	76.46	-1164.8	1087.9	435.02	-1179.6	1096.2	99.548	-1312.1	990.24	251.99	-1121.5	651.1	445.67	-1031.2	581.88	422.96	-1105.2	562.15	432.75	-1042.5	691.33	440.15	-1084.6	498.21	427.6	-1089.9	492.57	292.21	-1284.6	385.48	416.38	-1294.3	280.41	386.64	-1333.7	335.64	402.66	-1248.6	332.38	406.33	-1412.4	251.54	385.96	-1376.8	234.99	302.7	-1475.5	264.97	322.18	-1482	234.5	292.62	-1502.2	244.03	354.13	-1391.4	127.48	431.71	-1342.5	92.76	322.82	-1288.3	71.808	379.68	-1161.9	687.85	94.648	-1066.4	607.03	105.27	-1138.6	602.92	112.31	-1094.3	691.08	85.311	-1083.5	516.37	122.89	-1086.1	508.85	246.99	-1164.4	334.3	125.14	-1095.7	248.29	134.97	-1157.6	257.19	135.67	-1102.1	323.98	123.77	-1119.4	99.273	155.72	-1117.6	110.61	249.38	-1196.7	69.877	202.76	-1190.2	46.06	236.8	-1193.5	41.312	175.85	-1008.2	42.345	138.8	-978.28	49.798	255.15	-920.35	60.972	205.92	-1214.5	1554.2	262.99	-1302.3	1298.8	252.78
50	0.20417	-1030.4	1281.3	247.36	-1143.3	1511.3	429.38	-1179.3	1492.8	81.112	-1161.6	1834.1	238.33	-1070.3	994.95	391.35	-1071.2	1020.7	143.82	-1287.6	1027.5	293.6	-1284.3	1037.8	211.75	-1156.2	909.78	451.11	-1182	928.62	76.342	-1159.9	1088.8	434.73	-1174.3	1096.9	99.271	-1307.1	990.9	251.79	-1113.4	652.46	445.46	-1022.3	584.22	422.66	-1096.2	563.68	432.49	-1034.8	693.52	439.94	-1074.9	500.1	427.29	-1079.9	494.48	291.86	-1273.9	385.65	415.95	-1283	280.06	386.24	-1322.6	335.25	402.31	-1237.3	332.88	406.13	-1400.1	250.35	385.7	-1364.6	234.12	302.34	-1463.6	262.81	321.76	-1469.9	232.08	292.25	-1490	241.67	353.82	-1377.3	126.81	431.88	-1328.4	92.397	322.99	-1274.3	72.097	380.13	-1158.7	688.33	94.728	-1063.6	606.86	105.28	-1135.9	603.25	112.32	-1091.1	691.1	85.309	-1081.5	516.26	122.91	-1083.9	508.82	247.03	-1163.6	334.54	125.49	-1094.9	248.27	134.99	-1156.8	257.51	135.86	-1101.1	324	123.82	-1119.3	99.408	155.87	-1117.4	110.69	249.5	-1196.8	70.028	202.84	-1190.2	46.147	236.85	-1193.4	41.461	175.89	-1008.2	42.372	138.82	-978.24	49.637	255.19	-920.31	60.782	205.93	-1209.3	1555	262.52	-1297.2	1299.6	252.11
51	0.20833	-1025.4	1282	247.5	-1138.7	1512.2	429.12	-1173.6	1493.5	80.785	-1156.3	1834.8	237.82	-1065.3	995.98	391.1	-1066.1	1021.2	143.46	-1282.5	1028.2	293.39	-1279.3	1038.4	211.53	-1150.9	910.9	450.99	-1177.4	929.05	76.242	-1155	1089.7	434.45	-1169.1	1097.6	99.002	-1302	991.59	251.62	-1105.3	653.85	445.28	-1013.6	586.57	422.32	-1087.3	565.27	432.25	-1027.1	695.71	439.73	-1065.2	501.99	426.96	-1070.1	496.45	291.51	-1263.2	385.59	415.54	-1271.3	279.61	385.83	-1311.3	334.61	401.99	-1225.7	333.25	405.92	-1387.6	248.8	385.45	-1352.3	233.01	301.98	-1451.5	260.27	321.4	-1457.6	229.29	291.91	-1477.6	238.87	353.58	-1362.9	125.79	431.97	-1314	91.845	323.04	-1259.9	72.235	380.41	-1155.5	688.81	94.805	-1061	606.69	105.29	-1133.3	603.58	112.31	-1087.9	691.12	85.306	-1079.6	516.16	122.91	-1081.8	508.78	247.05	-1162.8	334.79	125.82	-1094.2	248.26	135	-1156.1	257.82	136.05	-1100.2	324.02	123.85	-1119.2	99.543	156.01	-1117.3	110.78	249.61	-1196.8	70.185	202.92	-1190.2	46.244	236.9	-1193.3	41.616	175.92	-1008.2	42.392	138.83	-978.19	49.485	255.22	-920.26	60.595	205.93	-1204.1	1555.7	262.07	-1292.1	1300.4	251.45
52	0.2125	-1020.3	1282.7	247.64	-1134.1	1513	428.87	-1167.9	1494.2	80.467	-1151.1	1835.4	237.32	-1060.3	997.01	390.85	-1060.9	1021.6	143.12	-1277.5	1029	293.2	-1274.3	1039.1	211.34	-1145.6	912.03	450.89	-1172.7	929.48	76.159	-1150.2	1090.6	434.18	-1163.8	1098.3	98.74	-1297	992.29	251.48	-1097.3	655.27	445.14	-1004.9	588.93	421.96	-1078.5	566.89	432.04	-1019.5	697.91	439.49	-1055.7	503.89	426.63	-1060.5	498.47	291.16	-1252.4	385.32	415.17	-1259.3	279.07	385.4	-1300	333.73	401.68	-1214	333.5	405.7	-1374.9	246.92	385.22	-1339.7	231.64	301.62	-1439.2	257.37	321.09	-1445.1	226.15	291.61	-1464.9	235.65	353.38	-1348.1	124.47	431.99	-1299.2	91.115	323	-1245.1	72.237	380.55	-1152.3	689.31	94.879	-1058.4	606.52	105.28	-1130.6	603.93	112.28	-1084.7	691.14	85.3	-1077.7	516.05	122.9	-1079.7	508.73	247.05	-1162.1	335.05	126.1	-1093.5	248.27	135	-1155.4	258.13	136.23	-1099.3	324.05	123.87	-1119	99.68	156.14	-1117.2	110.87	249.71	-1196.9	70.35	203	-1190.2	46.351	236.94	-1193.2	41.775	175.95	-1008.1	42.407	138.84	-978.14	49.341	255.25	-920.21	60.41	205.93	-1199	1556.4	261.63	-1287	1301.1	250.78
53	0.21667	-1015.2	1283.4	247.78	-1129.5	1513.9	428.62	-1162.1	1494.9	80.157	-1145.7	1836	236.85	-1055.2	998.04	390.59	-1055.8	1022.1	142.78	-1272.5	1029.7	293.05	-1269.3	1039.7	211.18	-1140.3	913.16	450.81	-1168.1	929.92	76.093	-1145.3	1091.5	433.92	-1158.5	1099	98.487	-1291.9	993	251.38	-1089.3	656.71	445.03	-996.39	591.28	421.55	-1069.8	568.54	431.85	-1011.9	700.1	439.24	-1046.2	505.77	426.28	-1051	500.53	290.82	-1241.6	384.84	414.84	-1247.1	278.42	384.97	-1288.6	332.61	401.39	-1202.2	333.61	405.46	-1362	244.72	385.01	-1327	230.05	301.28	-1426.8	254.12	320.83	-1432.4	222.68	291.33	-1451.9	232.04	353.23	-1333	122.86	431.94	-1284.2	90.214	322.86	-1230	72.115	380.56	-1149.2	689.8	94.951	-1055.8	606.35	105.28	-1128	604.29	112.23	-1081.6	691.17	85.292	-1075.9	515.95	122.88	-1077.5	508.67	247.02	-1161.3	335.32	126.35	-1092.9	248.28	134.99	-1154.7	258.42	136.41	-1098.4	324.09	123.88	-1118.9	99.817	156.26	-1117	110.98	249.8	-1196.9	70.522	203.07	-1190.2	46.467	236.99	-1193.1	41.938	175.98	-1008.1	42.415	138.85	-978.09	49.203	255.28	-920.16	60.227	205.93	-1193.8	1557.1	261.2	-1281.9	1301.9	250.12
54	0.22083	-1010.1	1284	247.92	-1124.9	1514.7	428.38	-1156.4	1495.6	79.855	-1140.4	1836.6	236.41	-1050.2	999.07	390.34	-1050.8	1022.6	142.44	-1267.4	1030.5	292.93	-1264.2	1040.4	211.05	-1134.9	914.29	450.75	-1163.5	930.37	76.045	-1140.4	1092.4	433.67	-1153.2	1099.7	98.244	-1286.8	993.72	251.31	-1081.4	658.16	444.96	-987.92	593.62	421.12	-1061.2	570.21	431.69	-1004.4	702.27	438.97	-1036.8	507.64	425.92	-1041.7	502.61	290.49	-1230.8	384.16	414.53	-1234.6	277.66	384.53	-1277	331.28	401.11	-1190.3	333.59	405.22	-1348.9	242.22	384.81	-1314	228.22	300.94	-1414.1	250.54	320.6	-1419.5	218.89	291.08	-1438.7	228.05	353.11	-1317.7	121	431.82	-1268.8	89.156	322.66	-1214.6	71.885	380.44	-1146.1	690.3	95.02	-1053.3	606.19	105.26	-1125.5	604.66	112.15	-1078.5	691.2	85.283	-1074.2	515.85	122.86	-1075.5	508.61	246.98	-1160.4	335.6	126.55	-1092.2	248.3	134.97	-1154.1	258.7	136.58	-1097.6	324.13	123.88	-1118.8	99.956	156.37	-1116.9	111.1	249.88	-1197	70.701	203.14	-1190.3	46.591	237.03	-1193	42.105	176.01	-1008.1	42.419	138.85	-978.03	49.072	255.3	-920.1	60.045	205.92	-1188.7	1557.8	260.77	-1276.8	1302.6	249.45
